<?xml version="1.0" encoding="UTF-8"?><svg width="24" height="24" version="1.1" viewBox="0 0 24 24" xmlns="http://www.w3.org/2000/svg" xmlns:xlink="http://www.w3.org/1999/xlink"><!--Generated by IJSVG (https://github.com/iconjar/IJSVG)--><path d="M9.5,3c3.5899,0 6.5,2.91015 6.5,6.5c0,1.6149 -0.589,3.0923 -1.5638,4.2291l0.2709,0.2709h0.7929l5,5l-1.5,1.5l-5,-5v-0.7929l-0.2709,-0.2709c-1.1368,0.9748 -2.6142,1.5638 -4.2291,1.5638c-3.58985,0 -6.5,-2.9101 -6.5,-6.5c0,-3.58985 2.91015,-6.5 6.5,-6.5Zm0,2.00001c-2.48528,0 -4.5,2.01472 -4.5,4.5c0,2.48529 2.01472,4.49999 4.5,4.49999c2.4853,0 4.5,-2.0147 4.5,-4.49999c0,-2.48528 -2.0147,-4.5 -4.5,-4.5Z" fill="#000"></path></svg>