<svg xmlns="http://www.w3.org/2000/svg" width="21.388" height="18.139" viewBox="0 0 21.388 18.139">
  <g id="Amazon.com_A_Smile" transform="translate(352.039 291.281)">
    <path id="path3673" d="M-159.089-279.9a3.287,3.287,0,0,1-.924-2.242v-3.769c0-1.6.116-3.064-1.074-4.163a5.58,5.58,0,0,0-3.683-1.206c-2.327,0-4.924.859-5.468,3.7a.425.425,0,0,0,.365.505l2.37.254a.514.514,0,0,0,.425-.444,1.858,1.858,0,0,1,1.966-1.452,1.637,1.637,0,0,1,1.372.628,3.072,3.072,0,0,1,.3,1.754v.316a17.084,17.084,0,0,0-4.6.837,4.112,4.112,0,0,0-2.606,3.954,3.451,3.451,0,0,0,3.66,3.772,4.868,4.868,0,0,0,4.031-1.759,5.922,5.922,0,0,0,1.4,1.613.511.511,0,0,0,.578-.058h0l.006.006c.488-.43,1.375-1.192,1.875-1.607A.454.454,0,0,0-159.089-279.9Zm-4.812-1.087a1.984,1.984,0,0,1-1.693,1.1c-.937,0-1.487-.708-1.487-1.755,0-2.061,1.869-2.435,3.637-2.435v.522h0A4.711,4.711,0,0,1-163.9-280.988Z" transform="translate(-176.541)" fill="#333"/>
    <g id="g3717" transform="translate(-352.039 -277.958)">
      <path id="path3719" d="M-438.7,280.73a15.34,15.34,0,0,1-8.659,2.646,15.672,15.672,0,0,1-10.577-4.034c-.219-.2-.023-.469.24-.315a21.291,21.291,0,0,0,10.584,2.808,21.043,21.043,0,0,0,8.073-1.652c.4-.167.728.262.34.547Z" transform="translate(458.029 -278.56)" fill="#ff9201"/>
      <path id="path3721" d="M194.975,264.281c-.3-.383-1.98-.181-2.734-.09-.229.027-.265-.172-.059-.318a4.211,4.211,0,0,1,3.792-.354c.257.319-.067,2.52-1.323,3.571-.193.162-.377.077-.291-.137C194.642,266.245,195.275,264.665,194.975,264.281Z" transform="translate(-174.669 -263.224)" fill="#ff9201"/>
    </g>
  </g>
</svg>
