<svg xmlns="http://www.w3.org/2000/svg" width="50.026" height="50.026" viewBox="0 0 50.026 50.026">
  <g id="F_icon" transform="translate(-4.588 -4.588)">
    <path id="Blue_1_" d="M51.853,54.614a2.761,2.761,0,0,0,2.761-2.761V7.349a2.761,2.761,0,0,0-2.761-2.761H7.349A2.761,2.761,0,0,0,4.588,7.349v44.5a2.761,2.761,0,0,0,2.761,2.761Z" fill="#3c5a99"/>
    <path id="f" d="M122.974,85.983V66.61h6.5l.974-7.55h-7.476V54.24c0-2.186.607-3.676,3.742-3.676l4,0V43.81a53.443,53.443,0,0,0-5.826-.3c-5.764,0-9.71,3.518-9.71,9.98V59.06h-6.519v7.55h6.519V85.983Z" transform="translate(-83.869 -31.368)" fill="#fff"/>
  </g>
</svg>
