<svg xmlns="http://www.w3.org/2000/svg" width="38.08" height="38.08" viewBox="0 0 38.08 38.08"><g transform="translate(-71.947 -3873.947)"><path d="M26.735,0H11.344A11.357,11.357,0,0,0,0,11.344V26.735A11.357,11.357,0,0,0,11.344,38.08H26.735A11.357,11.357,0,0,0,38.08,26.735V11.344A11.357,11.357,0,0,0,26.735,0Zm7.513,26.735a7.513,7.513,0,0,1-7.513,7.513H11.344a7.513,7.513,0,0,1-7.513-7.513V11.344a7.513,7.513,0,0,1,7.513-7.513H26.735a7.513,7.513,0,0,1,7.513,7.513V26.735Z" transform="translate(71.947 3873.947)" fill="#d3d8e0"/><path d="M142.849,133a9.849,9.849,0,1,0,9.849,9.849A9.86,9.86,0,0,0,142.849,133Zm0,15.867a6.018,6.018,0,1,1,6.018-6.018A6.018,6.018,0,0,1,142.849,148.867Z" transform="translate(-51.862 3750.138)" fill="#d3d8e0"/><circle cx="2.36" cy="2.36" r="2.36" transform="translate(98.495 3880.853)" fill="#d3d8e0"/></g></svg>