<?xml version="1.0" encoding="UTF-8"?><svg width="24" height="24" version="1.1" viewBox="0 0 24 24" xmlns="http://www.w3.org/2000/svg" xmlns:xlink="http://www.w3.org/1999/xlink"><!--Generated by IJSVG (https://github.com/iconjar/IJSVG)--><path d="M5.35125,5.64c-0.9025,-0.64 -1.1225,-1.88 -0.4925,-2.78875c0.63,-0.9025 1.88,-1.1225 2.7925,-0.4925c0.89875,0.63905 1.11875,1.88 0.48875,2.7925c-0.64,0.89875 -1.88,1.11875 -2.78875,0.48875Zm10.65,13.3588h-7.06995c-1.48,0 -2.74,-1.0788 -2.96,-2.5388l-1.9725,-9.4575h-1.99625l1.98625,9.755c0.38125,2.4412 2.48125,4.2437 4.95125,4.2437h7.0612m0.2288,-6.0012h-4.8825l-1.025,-4.1013c1.5775,0.8938 3.2763,1.5425 5.1463,1.2201v-2.1288c-1.6313,0.3075 -3.4375,-0.26875 -4.6875,-1.25l-1.64005,-1.26875c-0.23,-0.18125 -0.48875,-0.30375 -0.7625,-0.38125c-0.3175,-0.0875 -0.65875,-0.1225 -0.99125,-0.05875h-0.01875c-1.23125,0.22 -2.04625,1.38625 -1.83625,2.6075l1.3475,5.92255c0.27875,1.4212 1.50875,2.4362 2.94875,2.4362h6.85125l3.8175,3.0037l1.505,-1.4987" fill="#000"></path></svg>