<svg xmlns="http://www.w3.org/2000/svg" width="38.694" height="46.774" viewBox="0 0 38.694 46.774"><g transform="translate(-44.872 -32.147)"><g transform="translate(45.122 32.475)"><path d="M215.017,43.657a4.59,4.59,0,0,0,3.345-1.435,4.878,4.878,0,0,0-.01-6.772l-2.6-2.663a1.028,1.028,0,0,0-1.456-.021l-.021.021-2.612,2.674a4.875,4.875,0,0,0,0,6.761A4.63,4.63,0,0,0,215.017,43.657ZM213.149,36.9l1.868-1.91,1.858,1.9a2.8,2.8,0,0,1,0,3.9,2.571,2.571,0,0,1-3.623.093l-.093-.093A2.8,2.8,0,0,1,213.149,36.9Z" transform="translate(-195.92 -32.475)" fill="#d3d8e0" stroke="#d3d8e0" stroke-width="0.5"/><path d="M104.068,152.807H95.252v-6.689A3.1,3.1,0,0,0,92.186,143H88a3.091,3.091,0,0,0-3.066,3.117v6.689H76.114a5.152,5.152,0,0,0-5.12,5.182V169.86a.976.976,0,0,0,.96,1.012h1.208l.991,3.252a5.157,5.157,0,0,0,4.934,3.665h22.018a5.182,5.182,0,0,0,4.934-3.665l.991-3.252H108.2a.974.974,0,0,0,.991-.97V157.989A5.152,5.152,0,0,0,104.068,152.807Zm-17.074-6.689a1.032,1.032,0,0,1,.991-1.053h4.2a1.018,1.018,0,0,1,1,1.043v6.7H86.994v-6.689Zm-10.88,8.754h27.944a3.082,3.082,0,0,1,3.056,3.117v5.636a8.363,8.363,0,0,1-3.045-.9,11.427,11.427,0,0,0-9.889,0,9.409,9.409,0,0,1-8.2,0,11.427,11.427,0,0,0-9.889,0,8.363,8.363,0,0,1-3.045.9v-5.636A3.1,3.1,0,0,1,76.114,154.871Zm-3.056,13.936v-3.117a10.748,10.748,0,0,0,3.9-1.084,9.364,9.364,0,0,1,8.176,0,11.472,11.472,0,0,0,9.91,0,8.348,8.348,0,0,1,4.1-.939,8.258,8.258,0,0,1,4.077.939,10.545,10.545,0,0,0,3.9,1.084v3.117Zm31,4.7a3.11,3.11,0,0,1-2.963,2.219H79.077a3.129,3.129,0,0,1-2.963-2.219l-.805-2.632h29.554Z" transform="translate(-70.993 -131.591)" fill="#d3d8e0" stroke="#d3d8e0" stroke-width="0.5"/></g></g></svg>