<svg xmlns="http://www.w3.org/2000/svg" width="17.017" height="17.388" viewBox="0 0 17.017 17.388">
  <g id="noun_Box_1276334" transform="translate(-6.804 -5.846)" opacity="0.7">
    <g id="Group_1130" data-name="Group 1130" transform="translate(6.954 5.996)">
      <path id="Path_297" data-name="Path 297" d="M15.321,958.358a.39.39,0,0,0-.12.018L7.3,960.888a.4.4,0,0,0-.328.491v11.156a.388.388,0,0,0,.271.37l7.914,2.507a.388.388,0,0,0,.278.017h0a0,0,0,0,0,0,0L23.4,972.9a.388.388,0,0,0,.271-.37V961.271s0-.008,0-.011,0,0,0-.006a.388.388,0,0,0-.33-.372l-7.9-2.505a.391.391,0,0,0-.115-.018Zm0,.8,2.7.854-6.679,2.117-2.688-.852Zm3.981,1.262,2.7.856-6.671,2.119-2.707-.858ZM7.743,961.8l3.2,1.015-.031,2.721a.388.388,0,1,0,.777.009l.029-2.485,3.212,1.018v10.447L7.743,972.25Zm15.15,0V972.25l-7.187,2.276V964.084Z" transform="translate(-6.954 -958.358)" fill="#454545" stroke="#454545" stroke-width="0.3" fill-rule="evenodd"/>
    </g>
  </g>
</svg>
