<svg xmlns="http://www.w3.org/2000/svg" width="38.197" height="32.955" viewBox="0 0 38.197 32.955"><g transform="translate(-8.83 -12)"><path d="M40.845,17.061H37.408V14.9A2.885,2.885,0,0,0,34.523,12H21.334a2.885,2.885,0,0,0-2.885,2.885v2.16H15.012A6.19,6.19,0,0,0,8.83,23.227V38.772a6.19,6.19,0,0,0,6.182,6.182H40.845a6.19,6.19,0,0,0,6.182-6.182V23.243A6.19,6.19,0,0,0,40.845,17.061ZM20.922,14.9a.42.42,0,0,1,.412-.429H34.523a.42.42,0,0,1,.412.412v2.16H20.922ZM11.3,23.243a3.709,3.709,0,0,1,3.709-3.709H40.845a3.709,3.709,0,0,1,3.709,3.709v1.121A5.366,5.366,0,0,1,39.2,29.722H32.05V28.279a2.885,2.885,0,0,0-2.885-2.885H26.692a2.885,2.885,0,0,0-2.885,2.885v1.475H16.661A5.366,5.366,0,0,1,11.3,24.4Zm18.274,9.982a.42.42,0,0,1-.412.412H26.692a.42.42,0,0,1-.412-.412V28.279a.42.42,0,0,1,.412-.412h2.473a.42.42,0,0,1,.412.412ZM40.845,42.5H15.012A3.709,3.709,0,0,1,11.3,38.789V30.134a7.8,7.8,0,0,0,5.358,2.135h7.146v1a2.885,2.885,0,0,0,2.885,2.885h2.473a2.885,2.885,0,0,0,2.885-2.885v-1.03H39.2a7.8,7.8,0,0,0,5.358-2.1v8.638A3.709,3.709,0,0,1,40.845,42.5Z" fill="#d3d8e0"/></g></svg>