<svg xmlns="http://www.w3.org/2000/svg" width="22.28" height="22.281" viewBox="0 0 22.28 22.281"><g transform="translate(0 0)"><g transform="translate(0 0)"><path d="M17.865,967.362A2.88,2.88,0,0,0,15,970.227v16.551a2.88,2.88,0,0,0,2.865,2.865H34.416a2.88,2.88,0,0,0,2.865-2.865V970.227a2.88,2.88,0,0,0-2.865-2.865Zm0,1.91H34.416a.933.933,0,0,1,.955.955v7.321H31.462a5.406,5.406,0,0,0-10.643,0H16.91v-7.321A.933.933,0,0,1,17.865,969.272Zm14.642,1.91a1.273,1.273,0,1,0,1.273,1.273A1.273,1.273,0,0,0,32.506,971.182ZM26.14,975a3.5,3.5,0,1,1-3.5,3.5A3.487,3.487,0,0,1,26.14,975Zm-9.231,4.456h3.909a5.406,5.406,0,0,0,10.643,0h3.909v7.321a.932.932,0,0,1-.955.955H17.865a.932.932,0,0,1-.955-.955Z" transform="translate(-15 -967.362)" fill="#5085e8"/></g></g></svg>