<svg xmlns="http://www.w3.org/2000/svg" width="30.516" height="29.314" viewBox="0 0 30.516 29.314"><g transform="translate(-24 -32)"><path d="M52.517,32H26a1.963,1.963,0,0,0-2,2V53.985a1.963,1.963,0,0,0,2,2h4.664v4.664a.658.658,0,0,0,1.133.466l5.13-5.13H52.517a1.963,1.963,0,0,0,2-2V34A1.963,1.963,0,0,0,52.517,32Zm.666,21.985a.629.629,0,0,1-.666.666H36.658a.6.6,0,0,0-.466.2l-4.2,4.2V55.318a.629.629,0,0,0-.666-.666H26a.629.629,0,0,1-.666-.666V34A.629.629,0,0,1,26,33.332H52.517a.629.629,0,0,1,.666.666Z" fill="#d3d8e0"/></g></svg>