<svg xmlns="http://www.w3.org/2000/svg" width="26.827" height="17.386" viewBox="0 0 26.827 17.386">
  <g id="Group_1119" data-name="Group 1119" transform="translate(-100.681 -258.85)" opacity="0.696">
    <g id="noun_friends_1297819" transform="translate(100.831 259)">
      <g id="Group_47" data-name="Group 47">
        <g id="Group_46" data-name="Group 46">
          <path id="Path_70" data-name="Path 70" d="M49.443,47.148a.486.486,0,0,1-.967,0c0-3.247-2.652-4.819-7.254-4.819s-7.254,1.573-7.254,4.819a.486.486,0,0,1-.967,0c0-3.828,3.15-5.7,8.222-5.7S49.443,43.32,49.443,47.148Zm-8.222-6.572c-2.514,0-4.353-2.571-4.353-5.257a4.375,4.375,0,1,1,8.705,0C45.574,38.005,43.736,40.576,41.222,40.576Zm0-.876c1.87,0,3.385-2.12,3.385-4.381,0-2.157-1.447-3.943-3.385-3.943s-3.385,1.786-3.385,3.943C37.836,37.581,39.352,39.7,41.222,39.7Z" transform="translate(-33 -30.5)" fill="#454545" stroke="#454545" stroke-width="0.3"/>
        </g>
      </g>
    </g>
    <g id="noun_friends_1297819-2" data-name="noun_friends_1297819" transform="translate(114.668 259)">
      <g id="Group_47-2" data-name="Group 47" transform="translate(0)">
        <g id="Group_46-2" data-name="Group 46">
          <path id="Path_70-2" data-name="Path 70" d="M48.411,44.84a.448.448,0,0,1-.884,0c0-2.8-2.424-4.151-6.632-4.151s-4.3.847-4.325.862c-.1.125-.3.573-.621.433a.342.342,0,0,1-.209-.433c.279-.486.518-1.617,5.155-1.617S48.411,41.543,48.411,44.84ZM40.894,39.18c-2.3,0-3.979-2.215-3.979-4.528a3.983,3.983,0,1,1,7.959,0C44.874,36.965,43.193,39.18,40.894,39.18Zm0-.755c1.71,0,3.095-1.826,3.095-3.774a3.108,3.108,0,1,0-6.19,0C37.8,36.6,39.185,38.425,40.894,38.425Z" transform="translate(-35.721 -30.5)" fill="#454545" stroke="#454545" stroke-width="0.3"/>
        </g>
      </g>
    </g>
  </g>
</svg>
