<svg xmlns="http://www.w3.org/2000/svg" width="20.127" height="17.541" viewBox="0 0 20.127 17.541">
  <g id="noun_event_1379383" transform="translate(-7.68 -13.18)" opacity="0.696">
    <g id="Group" transform="translate(7.83 13.33)">
      <path id="Compound_Path" data-name="Compound Path" d="M12.572,13.33a.47.47,0,0,0-.47.47v.94H10.181A2.351,2.351,0,0,0,7.83,17.091v8.778a2.351,2.351,0,0,0,2.351,2.351,2.351,2.351,0,0,0,2.351,2.351H25.306a2.351,2.351,0,0,0,2.351-2.351V19.442a2.351,2.351,0,0,0-2.351-2.351,2.351,2.351,0,0,0-2.351-2.351H21.034V13.8a.47.47,0,1,0-.94,0v.94H13.042V13.8A.47.47,0,0,0,12.572,13.33ZM24.836,28.22a.47.47,0,0,0,.47-.47V18.032a1.41,1.41,0,0,1,1.41,1.41V28.22a1.41,1.41,0,0,1-1.41,1.41H12.532a1.41,1.41,0,0,1-1.41-1.41ZM20.094,15.681v.94a.47.47,0,1,0,.94,0v-.94h1.921a1.41,1.41,0,0,1,1.41,1.41V27.28H10.181a1.41,1.41,0,0,1-1.41-1.41V17.091a1.41,1.41,0,0,1,1.41-1.41H12.1v.94a.47.47,0,1,0,.94,0v-.94Z" transform="translate(-7.83 -13.33)" fill="#454545" stroke="#454545" stroke-width="0.3"/>
      <path id="Path" d="M23.5,38.47a.47.47,0,0,0,.47.47h2.821a.47.47,0,1,0,0-.94H23.97A.47.47,0,0,0,23.5,38.47Z" transform="translate(-19.816 -32.201)" fill="#454545" stroke="#454545" stroke-width="0.3"/>
      <path id="Path-2" data-name="Path" d="M23.5,49.47a.47.47,0,0,0,.47.47h9.168a.47.47,0,0,0,0-.94H23.97A.47.47,0,0,0,23.5,49.47Z" transform="translate(-19.816 -40.615)" fill="#454545" stroke="#454545" stroke-width="0.3"/>
      <path id="Path-3" data-name="Path" d="M33.138,60H23.97a.47.47,0,1,0,0,.94h9.168a.47.47,0,0,0,0-.94Z" transform="translate(-19.816 -49.029)" fill="#454545" stroke="#454545" stroke-width="0.3"/>
    </g>
  </g>
</svg>
