<svg xmlns="http://www.w3.org/2000/svg" width="23.395" height="26.589" viewBox="0 0 23.395 26.589"><g transform="translate(83.75 28.75)"><g transform="translate(-83.5 -28.5)"><g transform="translate(0)"><path d="M13.843,1.69h0a3.462,3.462,0,0,1,0,6.736V22.1a.8.8,0,1,1-1.6,0V8.426a3.462,3.462,0,0,1,0-6.736V.8a.8.8,0,1,1,1.6,0ZM11.181,5.058a1.864,1.864,0,1,0,1.864-1.864A1.865,1.865,0,0,0,11.181,5.058ZM4.26,14.469h0a3.462,3.462,0,0,1,0,6.736V22.1a.8.8,0,1,1-1.6,0V21.2a3.462,3.462,0,0,1,0-6.736V.8a.8.8,0,1,1,1.6,0ZM1.6,17.837a1.864,1.864,0,1,0,1.864-1.864A1.865,1.865,0,0,0,1.6,17.837Zm21.83-8.16h0a3.462,3.462,0,0,1,0,6.736V22.1a.8.8,0,1,1-1.6,0V16.413a3.462,3.462,0,0,1,0-6.736V.8a.8.8,0,1,1,1.6,0Zm-2.662,3.368a1.864,1.864,0,1,0,1.864-1.864A1.865,1.865,0,0,0,20.765,13.045Z" transform="translate(22.895) rotate(90)" fill="#d3d8e0" stroke="#d3d8e0" stroke-width="0.5"/></g></g></g></svg>