<svg xmlns="http://www.w3.org/2000/svg" width="39.027" height="46.347" viewBox="0 0 39.027 46.347"><g transform="translate(-9.5 -1.8)"><g transform="translate(10 2.3)"><path d="M29.014,47.647a1,1,0,0,1-.618-.238c-.761-.665-18.4-15.781-18.4-26.1a19.014,19.014,0,0,1,38.027,0c0,10.315-17.635,25.431-18.4,26.1a1,1,0,0,1-.618.238Zm0-43.4A17.081,17.081,0,0,0,11.949,21.314c0,8.366,13.927,21.248,17.065,24.052,3.137-2.8,17.065-15.686,17.065-24.052A17.081,17.081,0,0,0,29.014,4.249Z" transform="translate(-10 -2.3)" fill="#d3d8e0" stroke="#d3d8e0" stroke-width="1"/><g transform="translate(10.22 10.22)"><path d="M40.294,41.387a8.794,8.794,0,1,1,8.794-8.794,8.8,8.8,0,0,1-8.794,8.794Zm0-15.591a6.845,6.845,0,1,0,6.845,6.845A6.847,6.847,0,0,0,40.294,25.8Z" transform="translate(-31.5 -23.8)" fill="#d3d8e0" stroke="#d3d8e0" stroke-width="1"/></g></g></g></svg>