<svg xmlns="http://www.w3.org/2000/svg" width="38.027" height="21.979" viewBox="0 0 38.027 21.979"><g transform="translate(-5 -23.978)"><g transform="translate(5 23.978)"><path d="M24.276,23.987a1.268,1.268,0,0,0-.3.079L6.65,30.826a1.268,1.268,0,0,0-.805,1.188V42.167a2.112,2.112,0,1,0,2.535,0v-8.3l4.225,1.65v5.8a2.98,2.98,0,0,0,1.333,2.324A8.751,8.751,0,0,0,16.579,44.9a26.574,26.574,0,0,0,7.856,1.056A26.574,26.574,0,0,0,32.29,44.9a8.751,8.751,0,0,0,2.641-1.267,2.98,2.98,0,0,0,1.333-2.324v-5.8l5.954-2.324a1.268,1.268,0,0,0,0-2.363L24.9,24.066A1.268,1.268,0,0,0,24.276,23.987Zm.158,2.627,13.836,5.4L24.434,37.4,10.6,32.014ZM15.14,36.5l8.833,3.446a1.268,1.268,0,0,0,.924,0L33.729,36.5V41.3a1.222,1.222,0,0,1-.33.317,6.8,6.8,0,0,1-1.888.871,24.452,24.452,0,0,1-7.077.937,24.452,24.452,0,0,1-7.077-.937,6.8,6.8,0,0,1-1.888-.871,1.4,1.4,0,0,1-.33-.3Z" transform="translate(-5 -23.978)" fill="#d3d8e0"/></g></g></svg>