<svg xmlns="http://www.w3.org/2000/svg" width="33.161" height="29.561" viewBox="0 0 33.161 29.561"><g transform="translate(0.25 0.288)"><path d="M2.932,3.068H9.5a2.09,2.09,0,0,1,2.085,2.085V17.567A2.09,2.09,0,0,1,9.5,19.653H2.932A2.09,2.09,0,0,1,.847,17.567V5.154A2.09,2.09,0,0,1,2.932,3.068ZM9.5,4.087H2.932A1.072,1.072,0,0,0,1.865,5.154V17.567a1.072,1.072,0,0,0,1.067,1.067H9.5a1.072,1.072,0,0,0,1.067-1.067V5.154A1.072,1.072,0,0,0,9.5,4.087Z" transform="translate(-0.847 9.248)" fill="#d3d8e0" stroke="#d3d8e0" stroke-width="0.5"/><path d="M2.648,14.542a.507.507,0,1,0,.437.915c.02-.01,6.988-3.24,5.967-13.216,1.411-.257,5.927-.36,3.969,9.561h0a.509.509,0,0,0,.607.6c.838-.107,13.963-1.7,9.762,4.743h0a.509.509,0,0,0,.051.622c.192.249,1.648,2.272-.669,3.4h0a.509.509,0,0,0-.254.637c.069.207.831,2.622-.958,3.389h0a.509.509,0,0,0-.306.515c0,.42-.114,3.792-2.966,3.4h0a.515.515,0,0,0-.078,0H5.826L3.194,27.651a.508.508,0,1,0-.489.891l2.72,1.5a.507.507,0,0,0,.272.079H18.2c3.515.445,3.993-3.042,4.056-4.141,1.835-1.008,1.552-3.186,1.336-4.1,2.473-1.453,1.355-3.674.835-4.473,4.357-7.139-7.268-6.387-10.279-6.082C16.3-.855,8.891,1.2,8.375,1.358a.509.509,0,0,0-.383.557h0c1.19,9.6-5.326,12.618-5.344,12.627Z" transform="translate(7.267 -1.133)" fill="#d3d8e0" stroke="#d3d8e0" stroke-width="0.5"/></g></svg>