<svg xmlns="http://www.w3.org/2000/svg" width="31.792" height="28.583" viewBox="0 0 31.792 28.583"><defs><style>.a{opacity:0.596;}.b{fill:#fff;stroke:#fff;}</style></defs><g class="a" transform="translate(0.5 0.5)"><path class="b" d="M105.7,97.5H83.088A4.1,4.1,0,0,0,79,101.6v13.378a4.11,4.11,0,0,0,4.088,4.106h7.533l3.305,5.7a.615.615,0,0,0,1.061,0l3.314-5.7h7.4a4.11,4.11,0,0,0,4.088-4.106V101.588A4.1,4.1,0,0,0,105.7,97.5Zm2.87,17.458a2.888,2.888,0,0,1-2.87,2.888H97.936a.605.605,0,0,0-.531.3l-2.957,5.1-2.957-5.1a.605.605,0,0,0-.531-.3H83.088a2.888,2.888,0,0,1-2.87-2.888v-13.37a2.881,2.881,0,0,1,2.87-2.879H105.7a2.881,2.881,0,0,1,2.87,2.879Z" transform="translate(-79 -97.5)"/><rect class="b" width="23.333" height="0.791" transform="translate(3.73 14.753)"/><rect class="b" width="23.333" height="0.791" transform="translate(3.73 10.245)"/><rect class="b" width="10.064" height="0.791" transform="translate(3.839 5.737)"/></g></svg>