<svg id="noun_Newspaper_772219_1_" data-name="noun_Newspaper_772219 (1)" xmlns="http://www.w3.org/2000/svg" width="19.911" height="17.219" viewBox="0 0 19.911 17.219">
  <g id="Group_44" data-name="Group 44">
    <path id="Path_62" data-name="Path 62" d="M27.137,14.5H13.484a1.687,1.687,0,0,0-1.7,1.7v.728H10.6a1.687,1.687,0,0,0-1.7,1.7V29.73a1.976,1.976,0,0,0,1.867,1.989H26.822a2,2,0,0,0,1.989-1.989V16.2A1.667,1.667,0,0,0,27.137,14.5ZM11.786,29.8a.881.881,0,0,1-.291.679,1.057,1.057,0,0,1-.7.267A.992.992,0,0,1,9.87,29.73V18.623A.715.715,0,0,1,10.6,17.9h1.188Zm16.079-.073a1.025,1.025,0,0,1-1.019,1.019H12.514a3.436,3.436,0,0,0,.194-.437v-.049c.024-.049.024-.121.049-.194v-.049c0-.073.024-.146.024-.243V16.2a.715.715,0,0,1,.728-.728h13.63a.715.715,0,0,1,.728.728Z" transform="translate(-8.9 -14.5)" fill="#454545"/>
    <path id="Path_63" data-name="Path 63" d="M62.79,36.1h-4.7a.485.485,0,1,0,0,.97h4.7a.485.485,0,1,0,0-.97Z" transform="translate(-45.789 -30.862)" fill="#454545"/>
    <path id="Path_64" data-name="Path 64" d="M62.79,47.6h-4.7a.485.485,0,1,0,0,.97h4.7a.485.485,0,1,0,0-.97Z" transform="translate(-45.789 -39.573)" fill="#454545"/>
    <path id="Path_65" data-name="Path 65" d="M42.565,59.1H31.385a.485.485,0,0,0,0,.97h11.18a.485.485,0,1,0,0-.97Z" transform="translate(-25.565 -48.284)" fill="#454545"/>
    <path id="Path_66" data-name="Path 66" d="M62.79,24.5h-4.7a.485.485,0,1,0,0,.97h4.7a.485.485,0,1,0,0-.97Z" transform="translate(-45.789 -22.075)" fill="#454545"/>
    <path id="Path_67" data-name="Path 67" d="M42.565,70.7H31.385a.485.485,0,1,0,0,.97h11.18a.485.485,0,1,0,0-.97Z" transform="translate(-25.565 -57.071)" fill="#454545"/>
    <path id="Path_68" data-name="Path 68" d="M31.385,31.072h4.268a.486.486,0,0,0,.485-.485v-5.6a.486.486,0,0,0-.485-.485H31.385a.486.486,0,0,0-.485.485v5.6A.486.486,0,0,0,31.385,31.072Zm.485-5.6h3.3V30.1h-3.3Z" transform="translate(-25.565 -22.075)" fill="#454545"/>
  </g>
</svg>
