<svg xmlns="http://www.w3.org/2000/svg" width="23.638" height="28.888" viewBox="0 0 23.638 28.888"><g transform="translate(0.52 0.5)" opacity="0.596"><path d="M36.087,24.584,34.94,22.756a4.676,4.676,0,0,1-.62-1.921l-.5-6.414c-.279-3.564-2.4-9.42-8.49-9.42s-8.211,5.857-8.49,9.42l-.5,6.414a5.186,5.186,0,0,1-.62,1.921l-1.147,1.828a2.672,2.672,0,0,0-.279,2.758,2.708,2.708,0,0,0,2.51,1.209H33.856a2.708,2.708,0,0,0,2.51-1.209A2.672,2.672,0,0,0,36.087,24.584Zm-.806,2.169a1.585,1.585,0,0,1-1.425.558H16.782a1.585,1.585,0,0,1-1.425-.558,1.632,1.632,0,0,1,.279-1.518l1.147-1.828a6.484,6.484,0,0,0,.806-2.479l.5-6.414c.248-3.13,1.8-8.274,7.251-8.274s7,5.144,7.251,8.274l.5,6.414a6.484,6.484,0,0,0,.806,2.479l1.147,1.828A1.519,1.519,0,0,1,35.281,26.753Zm-5.609,2.058c-.155.279-1.146,4.077-4.337,4.077-3.227,0-4.455-3.8-4.61-4.077a.611.611,0,1,1,1.054-.62c.434.713.843,3.457,3.556,3.457,2.537,0,2.881-2.745,3.284-3.457a.6.6,0,0,1,.837-.217A.583.583,0,0,1,29.672,28.811Z" transform="translate(-14.035 -5)" fill="#fff" stroke="#fff" stroke-width="1"/></g></svg>