<svg xmlns="http://www.w3.org/2000/svg" width="15.54" height="17.288" viewBox="0 0 15.54 17.288">
  <g id="noun_pages_734946" transform="translate(-26.91 -20.79)" opacity="0.7">
    <path id="Path_294" data-name="Path 294" d="M42.026,26.63H32.15a.5.5,0,0,0,0,1h9.875a.5.5,0,0,1,.5.5V38.917a.5.5,0,1,0,1,0V28.131A1.5,1.5,0,0,0,42.026,26.63Z" transform="translate(-3.092 -3.825)" fill="#454545" stroke="#454545" stroke-width="0.2"/>
    <path id="Path_295" data-name="Path 295" d="M47.766,20.89H37.89a.5.5,0,0,0,0,1h9.875a.5.5,0,0,1,.5.5V33.181a.5.5,0,1,0,1,0V22.391A1.5,1.5,0,0,0,47.766,20.89Z" transform="translate(-6.917)" fill="#454545" stroke="#454545" stroke-width="0.2"/>
    <path id="Path_296" data-name="Path 296" d="M37.146,32.61H28.511a1.5,1.5,0,0,0-1.5,1.5V44.287a1.5,1.5,0,0,0,1.5,1.5h8.634a1.5,1.5,0,0,0,1.5-1.5V34.111A1.5,1.5,0,0,0,37.146,32.61Zm.5,11.677a.5.5,0,0,1-.5.5H28.511a.5.5,0,0,1-.5-.5V34.111a.5.5,0,0,1,.5-.5h8.634a.5.5,0,0,1,.5.5Z" transform="translate(0 -7.81)" fill="#454545" stroke="#454545" stroke-width="0.2"/>
  </g>
</svg>
