<svg xmlns="http://www.w3.org/2000/svg" width="26.632" height="22.581" viewBox="0 0 26.632 22.581"><g transform="translate(0.15 0.15)"><g transform="translate(0 0)"><path d="M37.332,34.554V21.726A4.74,4.74,0,0,0,32.606,17H15.726A4.74,4.74,0,0,0,11,21.726V34.554a4.74,4.74,0,0,0,4.726,4.726H32.606A4.74,4.74,0,0,0,37.332,34.554ZM15.726,18.35H32.606a3.386,3.386,0,0,1,3.376,3.376v7.123l-3.207-2.768a4.041,4.041,0,0,0-5.435.135l-2.127,1.992-1.418-1.755a4.061,4.061,0,0,0-5.233-.911L12.35,29.288V21.726A3.386,3.386,0,0,1,15.726,18.35Zm-3.376,16.2v-3.68l6.887-4.186a2.709,2.709,0,0,1,3.511.608L31.356,37.93H15.726A3.386,3.386,0,0,1,12.35,34.554ZM33.078,37.9l-7.022-8.642,2.194-2.093a2.691,2.691,0,0,1,3.612-.068l4.119,3.545v3.916A3.381,3.381,0,0,1,33.078,37.9Z" transform="translate(-11 -17)" fill="#d3d8e0" stroke="#d3d8e0" stroke-width="0.3"/></g></g></svg>