<svg xmlns="http://www.w3.org/2000/svg" width="32.232" height="28.448" viewBox="0 0 32.232 28.448"><g transform="translate(-10.3 -14.957)" opacity="0.5"><g transform="translate(10.6 15.27)"><path d="M65.67,45.879a.8.8,0,1,0,1.044,1.2,6.986,6.986,0,0,0,0-10.479.8.8,0,1,0-1.044,1.2,5.38,5.38,0,0,1,0,8.07Z" transform="translate(-43.348 -27.881)" fill="#fff" stroke="#fff" stroke-width="0.6"/><path d="M75.791,43.7a.81.81,0,1,0,1.084,1.2,12.847,12.847,0,0,0,0-18.95.8.8,0,1,0-1.084,1.164,11.242,11.242,0,0,1,0,16.581Z" transform="translate(-49.414 -21.491)" fill="#fff" stroke="#fff" stroke-width="0.6"/><path d="M29.309,42.342V16.085a.8.8,0,0,0-1.245-.683L17.184,22.71H13.812A3.212,3.212,0,0,0,10.6,25.921v6.544a3.212,3.212,0,0,0,3.212,3.212h3.372l10.88,7.307a.8.8,0,0,0,.442.12l.361-.08a.8.8,0,0,0,.442-.683ZM16.622,34.072h-2.81a1.606,1.606,0,0,1-1.606-1.606V25.921a1.606,1.606,0,0,1,1.606-1.606h2.81ZM27.7,40.816l-9.475-6.343V23.954L27.7,17.611Z" transform="translate(-10.6 -15.27)" fill="#fff" stroke="#fff" stroke-width="0.6"/></g></g></svg>