<svg xmlns="http://www.w3.org/2000/svg" width="30.74" height="28.562" viewBox="0 0 30.74 28.562"><g transform="translate(0.5 0.5)" opacity="0.596"><g transform="translate(0 0)"><path d="M208.039,100.689a1.442,1.442,0,0,0-1.577-.257,1.46,1.46,0,0,0-.883,1.328v16.806a5.265,5.265,0,0,0-4.1-1.92,5.391,5.391,0,1,0,5.382,5.391,2.887,2.887,0,0,0-.086-.857V101.76a.249.249,0,0,1,.171-.231.259.259,0,0,1,.283.043l7.962,7.216L216,107.9ZM201.5,126.228a4.191,4.191,0,1,1,4.191-4.191A4.192,4.192,0,0,1,201.5,126.228Z" transform="translate(-186.467 -99.866)" fill="#fff" stroke="#fff" stroke-width="1"/><rect width="13.627" height="1.2" transform="translate(0 0)" fill="#fff" stroke="#fff" stroke-width="1"/><rect width="13.627" height="1.2" transform="translate(0 5.913)" fill="#fff" stroke="#fff" stroke-width="1"/><rect width="13.627" height="1.2" transform="translate(0 11.913)" fill="#fff" stroke="#fff" stroke-width="1"/></g></g></svg>