<svg xmlns="http://www.w3.org/2000/svg" width="28.184" height="28.202" viewBox="0 0 28.184 28.202"><path d="M335.6,252.879a.776.776,0,0,1-.226.094,4.5,4.5,0,0,1-3.47-8.288.74.74,0,0,1,.224-.094,6.262,6.262,0,0,1,1.453-.179,4.4,4.4,0,0,1,4.165,2.691,4.585,4.585,0,0,1-2.147,5.776m11.23-1.768-1.356-1.216a.681.681,0,0,1-.226-.506v-1.329a.68.68,0,0,1,.222-.5l1.34-1.223a2.045,2.045,0,0,0,.5-2.294l-.683-1.631a2.032,2.032,0,0,0-1.987-1.246l-1.863.1a.683.683,0,0,1-.545-.227l-.889-1a.681.681,0,0,1-.17-.483l.082-1.754a2.042,2.042,0,0,0-1.262-1.98l-1.634-.67a2.035,2.035,0,0,0-2.285.527l-1.215,1.36a.677.677,0,0,1-.5.225h-1.326a.678.678,0,0,1-.5-.221l-1.221-1.343a2.035,2.035,0,0,0-2.29-.507l-1.629.685a2.04,2.04,0,0,0-1.242,1.992l.1,1.821a.678.678,0,0,1-.2.517l-.939.94a.651.651,0,0,1-.51.2l-1.811-.085a2.042,2.042,0,0,0-1.976,1.264l-.668,1.637a2.043,2.043,0,0,0,.526,2.289l1.357,1.216a.679.679,0,0,1,.226.506v1.33a.682.682,0,0,1-.222.5l-1.339,1.223a2.043,2.043,0,0,0-.506,2.293l.683,1.631a2.031,2.031,0,0,0,1.988,1.246l1.817-.1a.678.678,0,0,1,.517.2l.937.94a.677.677,0,0,1,.2.512l-.084,1.814a2.041,2.041,0,0,0,1.261,1.98l1.634.67a2.035,2.035,0,0,0,2.285-.528l1.214-1.359a.679.679,0,0,1,.5-.226h1.326a.678.678,0,0,1,.5.221l1.221,1.343a2.037,2.037,0,0,0,2.29.507l1.628-.685a2.043,2.043,0,0,0,1.244-1.992l-.1-1.819a.679.679,0,0,1,.2-.519l.938-.941a.659.659,0,0,1,.51-.2l1.81.084a2.04,2.04,0,0,0,1.977-1.264l.668-1.637A2.044,2.044,0,0,0,346.832,251.11Zm-.729,1.775-.668,1.637a.673.673,0,0,1-.659.421l-1.81-.084a2.059,2.059,0,0,0-1.532.595l-.937.94a2.041,2.041,0,0,0-.592,1.554l.1,1.82a.681.681,0,0,1-.415.664l-1.629.685a.681.681,0,0,1-.763-.168l-1.22-1.343a2.036,2.036,0,0,0-1.5-.665h-1.326a2.037,2.037,0,0,0-1.516.678l-1.215,1.359a.675.675,0,0,1-.76.175l-1.634-.67a.68.68,0,0,1-.421-.66l.084-1.813a2.044,2.044,0,0,0-.593-1.535l-.938-.94a2.036,2.036,0,0,0-1.439-.6c-.037,0-.075,0-.112,0l-1.817.1a.664.664,0,0,1-.663-.415L321.443,253a.683.683,0,0,1,.169-.765l1.34-1.223a2.046,2.046,0,0,0,.664-1.506v-1.33a2.04,2.04,0,0,0-.678-1.518l-1.356-1.216a.681.681,0,0,1-.175-.763l.668-1.638a.7.7,0,0,1,.658-.421l1.81.085a2.032,2.032,0,0,0,1.532-.595l.939-.94a2.035,2.035,0,0,0,.592-1.554l-.1-1.821a.679.679,0,0,1,.414-.663l1.628-.685a.678.678,0,0,1,.763.168l1.221,1.343a2.035,2.035,0,0,0,1.5.665h1.326a2.033,2.033,0,0,0,1.515-.678l1.214-1.36a.675.675,0,0,1,.761-.176l1.634.67a.679.679,0,0,1,.421.66l-.081,1.754a2.028,2.028,0,0,0,.512,1.448l.889,1a2.037,2.037,0,0,0,1.633.681l1.863-.1a.668.668,0,0,1,.663.415l.682,1.632a.682.682,0,0,1-.169.765l-1.339,1.222a2.047,2.047,0,0,0-.664,1.506v1.329a2.039,2.039,0,0,0,.678,1.518l1.356,1.216A.681.681,0,0,1,346.1,252.886Zm-14.286-9.617a2.13,2.13,0,0,0-.634.266,5.966,5.966,0,0,0-2.673,7.45,5.779,5.779,0,0,0,5.432,3.522,7.565,7.565,0,0,0,1.746-.213,2.117,2.117,0,0,0,.634-.266,5.855,5.855,0,0,0-4.5-10.76Z" transform="translate(-319.663 -234.664)" fill="#fff" stroke="#fff" stroke-width="0.6" fill-rule="evenodd" opacity="0.596"/></svg>