<svg xmlns="http://www.w3.org/2000/svg" width="35.829" height="29.314" viewBox="0 0 35.829 29.314"><g transform="translate(-2 -7.459)"><g transform="translate(2 7.459)"><path d="M2.824,36.773a.752.752,0,0,1-.746-.687c-.191-2.245-.424-10,4.568-15.43,3.177-3.457,7.84-5.267,13.871-5.374V8.164a.7.7,0,0,1,1.146-.549L37.577,20.871a.7.7,0,0,1,0,1.081L21.675,35.2a.7.7,0,0,1-1.164-.549V27.4a.084.084,0,0,0-.072-.084c-2.126-.382-9.65-.86-17.006,9.124a.752.752,0,0,1-.609.328ZM21.532,16.291a.6.6,0,0,1-.424.173c-5.971,0-10.539,1.678-13.585,5C3.517,25.821,3.117,31.84,3.194,34.8c7.542-9.554,15.227-9.052,17.454-8.646A1.278,1.278,0,0,1,21.705,27.4V33.62L36.359,21.409,21.705,9.2v6.664A.6.6,0,0,1,21.532,16.291Z" transform="translate(-2 -7.459)" fill="#d3d8e0"/></g></g></svg>