<svg xmlns="http://www.w3.org/2000/svg" width="30.855" height="29.814" viewBox="0 0 30.855 29.814"><g transform="translate(-20.747 -21.737)"><g transform="translate(21.003 21.987)"><path d="M27.037,1003.659a.526.526,0,0,1-.426-.589l1.239-9.836-6.7-7.205a.532.532,0,0,1-.123-.523.522.522,0,0,1,.394-.36l9.6-1.826,4.686-8.7a.516.516,0,0,1,.91,0l4.686,8.7,9.6,1.826a.522.522,0,0,1,.407.353.532.532,0,0,1-.117.53l-6.7,7.205,1.239,9.836a.53.53,0,0,1-.216.482.514.514,0,0,1-.52.048l-8.83-4.241-8.83,4.241a.513.513,0,0,1-.31.059Zm.716-1.414,8.191-3.946a.513.513,0,0,1,.445,0l8.21,3.946-1.162-9.129a.532.532,0,0,1,.136-.412l6.216-6.695-8.907-1.688a.52.52,0,0,1-.368-.275l-4.357-8.069-4.337,8.069a.521.521,0,0,1-.349.275l-8.907,1.688,6.216,6.695a.532.532,0,0,1,.136.412l-1.162,9.129Z" transform="translate(-21.003 -974.349)" fill="#d3d8e0" stroke="#d3d8e0" stroke-width="0.5"/></g></g></svg>