<svg xmlns="http://www.w3.org/2000/svg" width="38.312" height="51.504" viewBox="0 0 38.312 51.504"><path d="M42.427,40.952H35.243V35.9a10.772,10.772,0,0,0,5.387-9.317h.449a3.143,3.143,0,0,0,0-6.285h-.449v-.9h-.075l-.3-7.2a.789.789,0,0,0-.01-.1A7.988,7.988,0,0,0,29.208,6L25.176,7.732a7.191,7.191,0,0,0-6.993,7.181.87.87,0,0,0,.009.128l.752,5.26h-.312a3.143,3.143,0,1,0,0,6.285h.449A10.77,10.77,0,0,0,24.469,35.9v5.05H17.285A6.293,6.293,0,0,0,11,47.237v8.081a.9.9,0,0,0,.9.9H47.814a.9.9,0,0,0,.9-.9V47.237A6.293,6.293,0,0,0,42.427,40.952ZM41.08,22.1a1.347,1.347,0,0,1,0,2.694h-.449V22.1ZM25.366,9.526a.888.888,0,0,0,.354-.073l4.195-1.8a6.193,6.193,0,0,1,8.548,4.677l.057,1.373A4.876,4.876,0,0,0,31.5,12.23a3.07,3.07,0,0,1-3.42.106l-.393-.245a4.872,4.872,0,0,0-7.3,2.9l-.233,1.089-.175-1.227A5.394,5.394,0,0,1,25.366,9.526ZM18.632,24.79a1.347,1.347,0,1,1,0-2.694h.449V24.79Zm2.245,1.8V21.293l1.254-5.879a3.078,3.078,0,0,1,4.6-1.8l.393.246a4.86,4.86,0,0,0,5.416-.169,3.079,3.079,0,0,1,4.629,1.315l1.665,6.309v5.272a8.984,8.984,0,0,1-5.816,8.393l-.138.05c-.281.1-.567.187-.855.259l-.136.035a8.775,8.775,0,0,1-.948.169l-.049.007a8.91,8.91,0,0,1-2.075,0l-.049-.007a9,9,0,0,1-.948-.169l-.136-.035a8.82,8.82,0,0,1-.855-.259l-.138-.05a8.812,8.812,0,0,1-.877-.385A8.985,8.985,0,0,1,20.877,26.586Zm6.051,10.36q.234.066.471.121c.159.038.318.074.479.1.18.034.362.059.544.084.147.02.294.043.443.057.259.024.521.035.781.04.07,0,.138.011.209.011s.139-.009.209-.011c.261-.005.522-.016.781-.04.149-.013.3-.037.443-.057.182-.024.364-.049.544-.084.162-.031.321-.066.479-.1s.315-.077.471-.121c.173-.049.345-.1.514-.159.049-.017.1-.029.15-.046v4.737L29.857,45.07l-3.592-3.592V36.741c.049.018.1.03.15.046C26.584,36.844,26.755,36.9,26.928,36.946ZM46.916,54.421H12.8V47.237a4.5,4.5,0,0,1,4.49-4.49h7.709l4.226,4.226a.9.9,0,0,0,1.27,0l4.226-4.226h7.709a4.5,4.5,0,0,1,4.49,4.49Z" transform="translate(-10.7 -5.012)" fill="#d3d8e0" stroke="#d3d8e0" stroke-width="0.6"/></svg>