<svg xmlns="http://www.w3.org/2000/svg" width="17.172" height="17.388" viewBox="0 0 17.172 17.388"><g transform="translate(0.15 0.15)"><path d="M49.872,47.15a.5.5,0,0,1-.992,0c0-3.247-2.721-4.82-7.443-4.82s-7.443,1.573-7.443,4.82a.5.5,0,0,1-.992,0c0-3.828,3.232-5.7,8.436-5.7S49.872,43.322,49.872,47.15Zm-8.436-6.572c-2.58,0-4.466-2.571-4.466-5.258a4.479,4.479,0,1,1,8.932,0C45.9,38.006,44.016,40.578,41.436,40.578Zm0-.876c1.919,0,3.474-2.12,3.474-4.382a3.7,3.7,0,0,0-3.474-3.943,3.7,3.7,0,0,0-3.474,3.943C37.962,37.581,39.517,39.7,41.436,39.7Z" transform="translate(-33 -30.5)" fill="#454545" stroke="#454545" stroke-width="0.3"/></g></svg>