<svg xmlns="http://www.w3.org/2000/svg" width="17.221" height="18.366" viewBox="0 0 17.221 18.366"><g transform="translate(148.002 -28)"><g transform="translate(-148.002 28)"><path d="M14.574,16.739a.574.574,0,0,1-.432-.952L18.16,11.2a.574.574,0,0,1,.864.756l-4.018,4.592A.575.575,0,0,1,14.574,16.739Z" transform="translate(-6.538 -4.687)" fill="#a9c7fd"/><path d="M12.87,18.444a.572.572,0,0,1-.406-.168l-2.3-2.3a.574.574,0,0,1,.812-.812l2.3,2.3a.574.574,0,0,1-.406.98Z" transform="translate(-4.833 -6.391)" fill="#a9c7fd"/><path d="M9.609,18.366a2.075,2.075,0,0,1-1.82-1.091.606.606,0,0,1-.051-.083c-.114-.23-.291-.517-.489-.581a1.021,1.021,0,0,0-.709.174.559.559,0,0,1-.095.039,2.045,2.045,0,0,1-2.1-.217,2.144,2.144,0,0,1-.839-1.962.545.545,0,0,1,.006-.1c.115-.749-.032-.96-.748-1.076a.586.586,0,0,1-.1-.026A2.1,2.1,0,0,1,1.1,12.016,2.16,2.16,0,0,1,1.543,9.93a.545.545,0,0,1,.063-.078c.517-.531.517-.807,0-1.338a.525.525,0,0,1-.064-.079A2.16,2.16,0,0,1,1.1,6.35,2.1,2.1,0,0,1,2.665,4.919a.513.513,0,0,1,.1-.025c.716-.117.863-.328.748-1.077a.682.682,0,0,1-.006-.1,2.144,2.144,0,0,1,.839-1.961,2.046,2.046,0,0,1,2.1-.215.625.625,0,0,1,.091.038,1.021,1.021,0,0,0,.709.174c.2-.064.375-.351.489-.581a.622.622,0,0,1,.051-.084,2.063,2.063,0,0,1,3.641,0,.556.556,0,0,1,.048.08c.114.23.292.517.49.581a1.023,1.023,0,0,0,.709-.174.561.561,0,0,1,.092-.038,2.046,2.046,0,0,1,2.1.215,2.147,2.147,0,0,1,.839,1.961.562.562,0,0,1-.007.1c-.115.749.032.96.748,1.077a.592.592,0,0,1,.1.025,2.1,2.1,0,0,1,1.565,1.431,2.162,2.162,0,0,1-.444,2.087.564.564,0,0,1-.063.077c-.517.531-.517.807,0,1.338a.631.631,0,0,1,.064.078,2.161,2.161,0,0,1,.443,2.086,2.1,2.1,0,0,1-1.566,1.431.509.509,0,0,1-.1.026c-.716.116-.863.327-.747,1.076a.584.584,0,0,1,.007.1,2.141,2.141,0,0,1-.839,1.958,2.043,2.043,0,0,1-2.1.216.616.616,0,0,1-.092-.038,1.026,1.026,0,0,0-.709-.174c-.2.064-.375.351-.49.581a.557.557,0,0,1-.049.082A2.078,2.078,0,0,1,9.609,18.366ZM8.723,16.6a.586.586,0,0,1,.048.08.919.919,0,0,0,1.677,0,.56.56,0,0,1,.046-.078,2.011,2.011,0,0,1,1.12-1.078,1.964,1.964,0,0,1,1.507.2.56.56,0,0,1,.088.037.91.91,0,0,0,.977-.072,1,1,0,0,0,.378-.968.536.536,0,0,1-.007-.1,1.809,1.809,0,0,1,1.613-2.268.55.55,0,0,1,.093-.023.954.954,0,0,0,.76-.663,1.014,1.014,0,0,0-.243-1.016.535.535,0,0,1-.061-.074,1.84,1.84,0,0,1,0-2.795.51.51,0,0,1,.06-.073A1.015,1.015,0,0,0,17.022,6.7a.953.953,0,0,0-.759-.663.564.564,0,0,1-.1-.024,1.811,1.811,0,0,1-1.611-2.27.634.634,0,0,1,.007-.093,1,1,0,0,0-.378-.968.908.908,0,0,0-.977-.072.584.584,0,0,1-.088.037,1.973,1.973,0,0,1-1.507.2,2.008,2.008,0,0,1-1.121-1.079.594.594,0,0,1-.045-.076.919.919,0,0,0-1.677,0,.64.64,0,0,1-.048.081A2.012,2.012,0,0,1,7.6,2.847a1.972,1.972,0,0,1-1.508-.2.633.633,0,0,1-.087-.037.91.91,0,0,0-.977.072,1,1,0,0,0-.378.968.62.62,0,0,1,.007.092A1.811,1.811,0,0,1,3.048,6.009a.565.565,0,0,1-.094.024.955.955,0,0,0-.76.663,1.013,1.013,0,0,0,.243,1.016.553.553,0,0,1,.062.075,1.839,1.839,0,0,1,0,2.792.5.5,0,0,1-.061.074,1.015,1.015,0,0,0-.243,1.016.955.955,0,0,0,.76.664.519.519,0,0,1,.095.024A1.81,1.81,0,0,1,4.66,14.629a.554.554,0,0,1-.007.092,1,1,0,0,0,.378.968.907.907,0,0,0,.977.072.579.579,0,0,1,.09-.037,1.966,1.966,0,0,1,1.505-.2A2.009,2.009,0,0,1,8.723,16.6Z" transform="translate(-0.998)" fill="#a9c7fd"/></g></g></svg>