<svg xmlns="http://www.w3.org/2000/svg" width="31.379" height="22.981" viewBox="0 0 31.379 22.981"><g transform="translate(-5.65 -12.768)"><g transform="translate(6 13.118)"><path d="M35.631,18.271a1.969,1.969,0,0,0-2.032.109l-3.241,2.194v-2.21a5.253,5.253,0,0,0-5.247-5.247H11.247A5.253,5.253,0,0,0,6,18.364V30.152A5.253,5.253,0,0,0,11.247,35.4H25.11a5.253,5.253,0,0,0,5.247-5.247v-2.21L33.6,30.136A1.974,1.974,0,0,0,36.679,28.5V20.015A1.97,1.97,0,0,0,35.631,18.271ZM35.5,28.5a.794.794,0,0,1-1.239.658l-5.083-3.441v4.434a4.071,4.071,0,0,1-4.067,4.067H11.247A4.071,4.071,0,0,1,7.18,30.152V18.364A4.071,4.071,0,0,1,11.247,14.3H25.11a4.071,4.071,0,0,1,4.067,4.067V22.8l5.083-3.441a.794.794,0,0,1,1.239.658Z" transform="translate(-6 -13.118)" fill="#5085e8" stroke="#5085e8" stroke-width="0.7"/></g></g></svg>