<?xml version="1.0" encoding="UTF-8"?>
<svg width="36px" height="36px" viewBox="0 0 36 36" version="1.1" xmlns="http://www.w3.org/2000/svg" xmlns:xlink="http://www.w3.org/1999/xlink">
    <!-- Generator: Sketch 51.3 (57544) - http://www.bohemiancoding.com/sketch -->
    <title>Shape</title>
    <desc>Created with Sketch.</desc>
    <defs>
        <path d="M9.28412308,7.07150769 C9.35113846,7.13907692 9.44030769,7.17341538 9.52947692,7.17341538 C9.60424615,7.17341538 9.68012308,7.1496 9.74381538,7.09975385 C10.6000615,6.43070769 11.5327385,5.86633846 12.5224615,5.41716923 L12.5224615,18.0936 L12.5335385,18.1855385 C12.5723077,20.5227692 14.0549538,22.6207385 16.2481846,23.4276923 L16.3683692,23.4487385 C16.4381538,23.4487385 16.5073846,23.4276923 16.5666462,23.3861538 C16.6602462,23.3208 16.7156308,23.2144615 16.7156308,23.1014769 L16.7156308,18.4081846 L16.7106462,18.3500308 L16.6929231,18.2176615 L16.7156308,18.0936 L16.7156308,0.677907692 C16.7156308,0.579876923 16.6735385,0.485723077 16.6004308,0.419261538 C16.5367385,0.361661538 16.4531077,0.330646154 16.3678154,0.330646154 L16.3312615,0.332307692 C12.9018462,0.692861538 9.67292308,2.04313846 6.99396923,4.23692308 C6.91809231,4.29895385 6.87212308,4.39033846 6.86769231,4.48892308 C6.86270769,4.58695385 6.89926154,4.68221538 6.96904615,4.75144615 L9.28356923,7.07150769 L9.28412308,7.07150769 Z M31.9308923,6.76633846 C31.8688615,6.68990769 31.7774769,6.64393846 31.6788923,6.6384 L31.6611692,6.6384 C31.5686769,6.6384 31.4811692,6.67495385 31.4152615,6.74030769 L29.0996308,9.06147692 C28.9755692,9.18498462 28.9639385,9.38215385 29.0713846,9.51950769 C30.9721846,11.9652923 31.9774154,14.8962462 31.9774154,17.9966769 C31.9774154,25.6104 25.7981538,31.8057231 18.2016,31.8057231 C10.6056,31.8057231 4.42578462,25.6109538 4.42578462,17.9966769 C4.42578462,14.8962462 5.43101538,11.9641846 7.33126154,9.51950769 C7.43926154,9.3816 7.42652308,9.18443077 7.30301538,9.06092308 L4.98738462,6.7392 C4.92203077,6.67384615 4.83396923,6.63784615 4.74203077,6.63784615 L4.72430769,6.63784615 C4.62627692,6.64283077 4.53489231,6.6888 4.47286154,6.76523077 C1.89747692,9.92381538 0.479630769,13.9126154 0.479630769,17.9966769 C0.479630769,27.7914462 8.43064615,35.7601846 18.2027077,35.7601846 C27.9747692,35.7601846 35.9257846,27.7914462 35.9257846,17.9966769 C35.9252308,13.9120615 34.5079385,9.92381538 31.932,6.76578462 L31.9308923,6.76633846 Z M18.2016,26.0064 C13.7957538,26.0064 10.2118154,22.4130462 10.2118154,17.9972308 C10.2118154,16.4492308 10.6543385,14.9455385 11.4934154,13.6489846 C11.5820308,13.5116308 11.5632,13.3310769 11.4468923,13.2158769 L9.15563077,10.9190769 C9.09027692,10.8531692 9.00166154,10.8166154 8.90972308,10.8166154 L8.88369231,10.8177231 C8.78289231,10.8249231 8.6904,10.8764308 8.62947692,10.9584 C7.12356923,13.0115077 6.32769231,15.4456615 6.32769231,17.9972308 C6.32769231,24.5597538 11.6540308,29.8977231 18.2010462,29.8977231 C24.7475077,29.8977231 30.0744,24.5597538 30.0744,17.9972308 C30.0744,13.5409846 27.6424615,9.52227692 23.7129231,7.45753846 L23.7129231,5.34129231 C24.7646769,5.80209231 25.7544,6.39193846 26.6588308,7.09864615 C26.7219692,7.14849231 26.7978462,7.17286154 26.8737231,7.17286154 C26.9628923,7.17286154 27.0515077,7.13796923 27.1190769,7.06984615 L29.4330462,4.75033846 C29.5022769,4.68166154 29.5388308,4.58584615 29.5332923,4.48781538 C29.5283077,4.38978462 29.4823385,4.2984 29.4070154,4.23581538 C26.6815385,2.00436923 23.3933538,0.647446154 19.8985846,0.315138462 L19.8659077,0.313476923 C19.7795077,0.313476923 19.6969846,0.345046154 19.6321846,0.403753846 C19.5590769,0.469661538 19.5186462,0.562707692 19.5186462,0.661292308 L19.5186462,9.80695385 C19.5186462,9.972 19.6349538,10.1148923 19.7972308,10.1475692 C23.5013538,10.9002462 26.1902769,14.2011692 26.1902769,17.9961231 C26.1908308,22.4119385 22.6068923,26.0052923 18.2010462,26.0052923 L18.2016,26.0064 Z" id="path-1"></path>
    </defs>
    <g id="Symbols" stroke="none" stroke-width="1" fill="none" fill-rule="evenodd">
        <g id="Brand/Logo">
            <mask id="mask-2" fill="white">
                <use xlink:href="#path-1"></use>
            </mask>
            <use id="Shape" fill="#000000" xlink:href="#path-1"></use>
        </g>
    </g>
</svg>